<?xml version="1.0" encoding="utf-8"?>
<!-- Generator: Adobe Illustrator 13.0.0, SVG Export Plug-In . SVG Version: 6.00 Build 14948)  -->
<!DOCTYPE svg PUBLIC "-//W3C//DTD SVG 1.1//EN" "http://www.w3.org/Graphics/SVG/1.1/DTD/svg11.dtd">
<svg version="1.1" id="Layer_1" xmlns="http://www.w3.org/2000/svg" xmlns:xlink="http://www.w3.org/1999/xlink" x="0px" y="0px"
	 width="401px" height="443.553px" viewBox="0 0 401 443.553" enable-background="new 0 0 401 443.553" xml:space="preserve">
<g>
	<path fill="#1B75BB" d="M160.299,394.428C69.312,375.569,3.5,294.79,3.5,201.546c0-108.626,88.374-197,197-197s197,88.374,197,197
		c0,92.932-65.545,173.655-156.163,192.753c-10.659-17.953-17.967-36.892-21.782-56.435c11.101,8.771,24.7,13.518,39.102,13.518
		c34.91,0,63.312-28.401,63.312-63.312s-28.401-63.312-63.312-63.312c-2.889,0-5.768,0.197-8.621,0.589
		c8.841-11.132,13.776-25.05,13.776-39.405c0-34.91-28.401-63.312-63.312-63.312s-63.312,28.401-63.312,63.312
		c0,14.354,4.935,28.271,13.776,39.405c-2.852-0.392-5.731-0.589-8.621-0.589c-34.91,0-63.311,28.401-63.311,63.312
		s28.401,63.312,63.311,63.312c14.588,0,28.728-5.099,39.949-14.213C178.508,357.003,171.129,376.22,160.299,394.428
		L160.299,394.428z"/>
	<path fill="#231F20" d="M200.5,7.546c26.192,0,51.599,5.128,75.512,15.243c23.101,9.771,43.849,23.76,61.667,41.578
		s31.808,38.566,41.578,61.667c10.114,23.914,15.243,49.319,15.243,75.512c0,23.009-3.986,45.523-11.85,66.917
		c-7.598,20.672-18.612,39.79-32.737,56.824c-27.477,33.135-65.372,56.323-107.088,65.618
		c-8.565-14.809-14.824-30.278-18.698-46.194c10.281,6.307,22.121,9.671,34.529,9.671c36.564,0,66.312-29.747,66.312-66.312
		s-29.747-66.312-66.312-66.312c-0.801,0-1.602,0.015-2.4,0.043c6.815-10.612,10.556-23.07,10.556-35.859
		c0-36.564-29.747-66.312-66.312-66.312s-66.312,29.747-66.312,66.312c0,12.788,3.741,25.247,10.556,35.859
		c-0.799-0.028-1.6-0.043-2.401-0.043c-36.564,0-66.311,29.747-66.311,66.312s29.747,66.312,66.311,66.312
		c12.598,0,24.875-3.629,35.384-10.254c-3.874,16.169-10.207,31.88-18.92,46.913c-41.866-9.182-79.921-32.338-107.528-65.523
		c-14.184-17.05-25.246-36.197-32.877-56.91C10.505,247.171,6.5,224.608,6.5,201.546c0-26.192,5.128-51.598,15.243-75.512
		c9.771-23.101,23.76-43.849,41.578-61.667s38.566-31.808,61.667-41.578C148.902,12.674,174.308,7.546,200.5,7.546 M200.5,1.546
		c-110.457,0-200,89.543-200,200c0,97.207,69.354,178.204,161.278,196.24c11.062-18.147,21.122-41.288,24.901-68.841
		c-11.019,11.947-26.801,19.437-44.336,19.437c-33.308,0-60.311-27.002-60.311-60.312c0-33.309,27.003-60.312,60.311-60.312
		c6.012,0,11.812,0.891,17.29,2.528c-11.951-11.02-19.445-26.805-19.445-44.344c0-33.309,27.003-60.312,60.312-60.312
		c33.31,0,60.312,27.003,60.312,60.312c0,17.54-7.493,33.325-19.445,44.344c5.478-1.636,11.279-2.528,17.29-2.528
		c33.31,0,60.312,27.003,60.312,60.312c0,33.31-27.002,60.312-60.312,60.312c-17.1,0-32.524-7.127-43.5-18.559
		c3.863,27.104,13.789,49.905,24.703,67.841C331.466,379.38,400.5,298.528,400.5,201.546C400.5,91.089,310.957,1.546,200.5,1.546
		L200.5,1.546z"/>
</g>
<g id="EXPANDED">
	<path fill="#1B75BB" d="M160.299,394.428C69.312,375.569,3.5,294.79,3.5,201.546c0-108.626,88.374-197,197-197s197,88.374,197,197
		c0,92.932-65.545,173.655-156.163,192.753c-10.659-17.953-17.967-36.892-21.782-56.435c11.101,8.771,24.7,13.518,39.102,13.518
		c34.91,0,63.312-28.401,63.312-63.312s-28.401-63.312-63.312-63.312c-2.889,0-5.768,0.197-8.621,0.589
		c8.841-11.132,13.776-25.05,13.776-39.405c0-34.91-28.401-63.312-63.312-63.312s-63.312,28.401-63.312,63.312
		c0,14.354,4.935,28.271,13.776,39.405c-2.852-0.392-5.731-0.589-8.621-0.589c-34.91,0-63.311,28.401-63.311,63.312
		s28.401,63.312,63.311,63.312c14.588,0,28.728-5.099,39.949-14.213C178.508,357.003,171.129,376.22,160.299,394.428
		L160.299,394.428z"/>
	<path fill="#231F20" d="M200.5,7.546c26.192,0,51.599,5.128,75.512,15.243c23.101,9.771,43.849,23.76,61.667,41.578
		s31.808,38.566,41.578,61.667c10.114,23.914,15.243,49.319,15.243,75.512c0,23.009-3.986,45.523-11.85,66.917
		c-7.598,20.672-18.612,39.79-32.737,56.824c-27.477,33.135-65.372,56.323-107.088,65.618
		c-8.565-14.809-14.824-30.278-18.698-46.194c10.281,6.307,22.121,9.671,34.529,9.671c36.564,0,66.312-29.747,66.312-66.312
		s-29.747-66.312-66.312-66.312c-0.801,0-1.602,0.015-2.4,0.043c6.815-10.612,10.556-23.07,10.556-35.859
		c0-36.564-29.747-66.312-66.312-66.312s-66.312,29.747-66.312,66.312c0,12.788,3.741,25.247,10.556,35.859
		c-0.799-0.028-1.6-0.043-2.401-0.043c-36.564,0-66.311,29.747-66.311,66.312s29.747,66.312,66.311,66.312
		c12.598,0,24.875-3.629,35.384-10.254c-3.874,16.169-10.207,31.88-18.92,46.913c-41.866-9.182-79.921-32.338-107.528-65.523
		c-14.184-17.05-25.246-36.197-32.877-56.91C10.505,247.171,6.5,224.608,6.5,201.546c0-26.192,5.128-51.598,15.243-75.512
		c9.771-23.101,23.76-43.849,41.578-61.667s38.566-31.808,61.667-41.578C148.902,12.674,174.308,7.546,200.5,7.546 M200.5,1.546
		c-110.457,0-200,89.543-200,200c0,97.207,69.354,178.204,161.278,196.24c11.062-18.147,21.122-41.288,24.901-68.841
		c-11.019,11.947-26.801,19.437-44.336,19.437c-33.308,0-60.311-27.002-60.311-60.312c0-33.309,27.003-60.312,60.311-60.312
		c6.012,0,11.812,0.891,17.29,2.528c-11.951-11.02-19.445-26.805-19.445-44.344c0-33.309,27.003-60.312,60.312-60.312
		c33.31,0,60.312,27.003,60.312,60.312c0,17.54-7.493,33.325-19.445,44.344c5.478-1.636,11.279-2.528,17.29-2.528
		c33.31,0,60.312,27.003,60.312,60.312c0,33.31-27.002,60.312-60.312,60.312c-17.1,0-32.524-7.127-43.5-18.559
		c3.863,27.104,13.789,49.905,24.703,67.841C331.466,379.38,400.5,298.528,400.5,201.546C400.5,91.089,310.957,1.546,200.5,1.546
		L200.5,1.546z"/>
</g>
<g id="element" display="none">
	<circle display="inline" opacity="0.32" fill="#FFFFFF" stroke="#231F20" cx="200.5" cy="200.5" r="200"/>
	<circle display="inline" fill="#FFFFFF" stroke="#231F20" cx="200.5" cy="184.897" r="60.312"/>
	<circle display="inline" fill="#FFFFFF" stroke="#231F20" cx="142.344" cy="287.024" r="60.311"/>
	<circle display="inline" fill="#FFFFFF" stroke="#231F20" cx="258.656" cy="287.024" r="60.312"/>
	<path display="inline" fill="#FFFFFF" stroke="#231F20" d="M122.486,443.053c0,0,101.363-78.724,52.455-207.801h29.105v207.801
		H122.486z"/>
	<path display="inline" fill="#FFFFFF" stroke="#231F20" d="M279.224,443.053c0,0-101.363-78.724-52.455-207.801h-29.105v207.801
		H279.224z"/>
</g>
</svg>
