<?xml version="1.0" encoding="UTF-8" standalone="no"?>
<!-- Created with Inkscape (http://www.inkscape.org/) -->

<svg
   xmlns:dc="http://purl.org/dc/elements/1.1/"
   xmlns:cc="http://creativecommons.org/ns#"
   xmlns:rdf="http://www.w3.org/1999/02/22-rdf-syntax-ns#"
   xmlns:svg="http://www.w3.org/2000/svg"
   xmlns="http://www.w3.org/2000/svg"
   xmlns:sodipodi="http://sodipodi.sourceforge.net/DTD/sodipodi-0.dtd"
   xmlns:inkscape="http://www.inkscape.org/namespaces/inkscape"
   width="58.237167"
   height="91.607452"
   id="svg6010"
   version="1.1"
   inkscape:version="0.47 r22583"
   sodipodi:docname="jc.svg">
  <defs
     id="defs6012">
    <inkscape:perspective
       sodipodi:type="inkscape:persp3d"
       inkscape:vp_x="0 : 526.18109 : 1"
       inkscape:vp_y="0 : 1000 : 0"
       inkscape:vp_z="744.09448 : 526.18109 : 1"
       inkscape:persp3d-origin="372.04724 : 350.78739 : 1"
       id="perspective6018" />
    <inkscape:perspective
       id="perspective5970"
       inkscape:persp3d-origin="0.5 : 0.33333333 : 1"
       inkscape:vp_z="1 : 0.5 : 1"
       inkscape:vp_y="0 : 1000 : 0"
       inkscape:vp_x="0 : 0.5 : 1"
       sodipodi:type="inkscape:persp3d" />
    <inkscape:perspective
       id="perspective5970-8"
       inkscape:persp3d-origin="0.5 : 0.33333333 : 1"
       inkscape:vp_z="1 : 0.5 : 1"
       inkscape:vp_y="0 : 1000 : 0"
       inkscape:vp_x="0 : 0.5 : 1"
       sodipodi:type="inkscape:persp3d" />
    <inkscape:perspective
       id="perspective6194"
       inkscape:persp3d-origin="0.5 : 0.33333333 : 1"
       inkscape:vp_z="1 : 0.5 : 1"
       inkscape:vp_y="0 : 1000 : 0"
       inkscape:vp_x="0 : 0.5 : 1"
       sodipodi:type="inkscape:persp3d" />
    <inkscape:perspective
       id="perspective6312"
       inkscape:persp3d-origin="0.5 : 0.33333333 : 1"
       inkscape:vp_z="1 : 0.5 : 1"
       inkscape:vp_y="0 : 1000 : 0"
       inkscape:vp_x="0 : 0.5 : 1"
       sodipodi:type="inkscape:persp3d" />
  </defs>
  <sodipodi:namedview
     id="base"
     pagecolor="#ffffff"
     bordercolor="#666666"
     borderopacity="1.0"
     inkscape:pageopacity="0.0"
     inkscape:pageshadow="2"
     inkscape:zoom="3.959798"
     inkscape:cx="76.109949"
     inkscape:cy="41.955831"
     inkscape:document-units="px"
     inkscape:current-layer="layer1"
     showgrid="false"
     inkscape:window-width="1280"
     inkscape:window-height="781"
     inkscape:window-x="0"
     inkscape:window-y="19"
     inkscape:window-maximized="0" />
  <metadata
     id="metadata6015">
    <rdf:RDF>
      <cc:Work
         rdf:about="">
        <dc:format>image/svg+xml</dc:format>
        <dc:type
           rdf:resource="http://purl.org/dc/dcmitype/StillImage" />
        <dc:title></dc:title>
      </cc:Work>
    </rdf:RDF>
  </metadata>
  <g
     inkscape:label="Layer 1"
     inkscape:groupmode="layer"
     id="layer1"
     transform="translate(-408.95154,-750.87725)">
    <g
       id="g3961"
       transform="matrix(1.2012689,0,0,1.2012689,723.22681,562.51738)">
      <rect
         ry="2.2728474"
         y="157.17575"
         x="-261.24442"
         height="75.508904"
         width="47.72971"
         id="rect3142"
         style="fill:#f4f4f4;fill-opacity:1;stroke:#cbcbcb;stroke-width:0.75;stroke-miterlimit:4;stroke-opacity:1;stroke-dasharray:none" />
      <path
         sodipodi:nodetypes="cccccccccccccc"
         id="rect3142-2"
         d="m -252.51339,161.35268 c -2.3784,0 -4.28125,1.90285 -4.28125,4.28125 l 0,40.65625 8.37946,8.6875 0.0893,9.5625 c 0,2.3784 1.90285,4.3125 4.28125,4.3125 l 22.21875,0 c 2.3784,0 4.3125,-1.9341 4.3125,-4.3125 l -0.17857,-41.54911 -7.84375,-8.03125 -0.44643,-9.32589 c 0,-2.3784 -1.90285,-4.28125 -4.28125,-4.28125 l -22.25,0 -10e-6,0 z"
         style="fill:#fae8dc;fill-opacity:1;stroke:#cbcbcb;stroke-width:0.75;stroke-miterlimit:4;stroke-opacity:1;stroke-dasharray:none" />
    </g>
    <path
       d="m 426.2087,780.93474 c 1.86575,0 3.37961,1.65669 3.37961,3.69849 0,1.73945 -3.07329,4.66604 -2.95393,6.05591 0.98678,0.39717 4.03554,-3.26793 5.6112,-3.26793 1.86575,0 3.37961,1.65668 3.37961,3.69848 0,2.04179 -1.51386,3.69847 -3.37961,3.69847 -1.61816,0 -4.39131,-3.66209 -5.6112,-3.33145 l 2.04945,6.53513 -4.91465,-0.0211 c 0,0 2.15305,-6.33593 2.15573,-6.48572 l -0.0387,0 0,0.007 c -1.19467,-0.32474 -4.06256,3.36675 -5.66926,3.36675 -1.86575,0 -3.37961,-1.65669 -3.37961,-3.69849 0,-2.04178 1.51386,-3.69847 3.37961,-3.69847 1.56924,0 4.41373,3.6045 5.66281,3.23264 -0.0175,-1.42415 -3.0507,-4.35365 -3.0507,-6.0912 0,-2.0418 1.51386,-3.69848 3.37963,-3.69848 z"
       id="path2264-6"
       sodipodi:nodetypes="cscsssccccccssscsc"
       style="fill:#00c40b;fill-opacity:1;fill-rule:evenodd;stroke:none" />
    <text
       xml:space="preserve"
       style="font-size:24.02537918px;font-style:normal;font-variant:normal;font-weight:normal;font-stretch:normal;fill:#00c40b;fill-opacity:1;stroke:none;font-family:Arial;-inkscape-font-specification:Arial"
       x="418.34375"
       y="775.22003"
       id="text4217"><tspan
         sodipodi:role="line"
         id="tspan4219"
         x="418.34375"
         y="775.22003">A</tspan></text>
    <path
       d="m 459.28582,765.30319 c 1.02222,0 1.85164,0.90768 1.85164,2.02635 0,0.95301 -1.68382,2.55646 -1.61842,3.31794 0.54065,0.21761 2.21102,-1.79044 3.0743,-1.79044 1.02222,0 1.85164,0.90766 1.85164,2.02633 0,1.11867 -0.82942,2.02635 -1.85164,2.02635 -0.88657,0 -2.40594,-2.00641 -3.0743,-1.82525 l 1.12286,3.5805 -2.69265,-0.012 c 0,0 1.17962,-3.47136 1.18109,-3.55343 l -0.0212,0 0,0.004 c -0.65453,-0.17792 -2.22582,1.84459 -3.10611,1.84459 -1.0222,0 -1.85163,-0.90768 -1.85163,-2.02635 0,-1.11866 0.82943,-2.02634 1.85163,-2.02634 0.85978,0 2.41823,1.97485 3.10258,1.77112 -0.01,-0.78027 -1.67143,-2.3853 -1.67143,-3.33728 0,-1.11867 0.82943,-2.02634 1.85165,-2.02634 z"
       id="path2264-6-2"
       sodipodi:nodetypes="cscsssccccccssscsc"
       style="fill:#00c40b;fill-opacity:1;fill-rule:evenodd;stroke:none" />
    <text
       xml:space="preserve"
       style="font-size:13.1631546px;font-style:normal;font-variant:normal;font-weight:normal;font-stretch:normal;fill:#00c40b;fill-opacity:1;stroke:none;font-family:Arial;-inkscape-font-specification:Arial"
       x="455.64157"
       y="762.67084"
       id="text4217-0"><tspan
         sodipodi:role="line"
         id="tspan4219-7"
         x="455.64157"
         y="762.67084">A</tspan></text>
    <path
       d="m 450.37146,812.5434 c -1.86575,0 -3.37961,-1.65669 -3.37961,-3.69849 0,-1.73945 3.07329,-4.66604 2.95393,-6.05591 -0.98678,-0.39717 -4.03554,3.26794 -5.6112,3.26794 -1.86575,0 -3.37961,-1.65669 -3.37961,-3.69848 0,-2.0418 1.51386,-3.69848 3.37961,-3.69848 1.61816,0 4.39131,3.66209 5.6112,3.33145 l -2.04945,-6.53513 4.91465,0.0211 c 0,0 -2.15305,6.33593 -2.15573,6.48573 l 0.0387,0 0,-0.007 c 1.19466,0.32474 4.06256,-3.36675 5.66926,-3.36675 1.86575,0 3.37961,1.6567 3.37961,3.69849 0,2.04179 -1.51386,3.69847 -3.37961,3.69847 -1.56924,0 -4.41373,-3.60449 -5.66281,-3.23264 0.0175,1.42415 3.0507,4.35365 3.0507,6.0912 0,2.0418 -1.51387,3.69848 -3.37963,3.69848 z"
       id="path2264-6-3"
       sodipodi:nodetypes="cscsssccccccssscsc"
       style="fill:#00c40b;fill-opacity:1;fill-rule:evenodd;stroke:none" />
    <text
       xml:space="preserve"
       style="font-size:24.02537918px;font-style:normal;font-variant:normal;font-weight:normal;font-stretch:normal;fill:#00c40b;fill-opacity:1;stroke:none;font-family:Arial;-inkscape-font-specification:Arial"
       x="-457.02295"
       y="-817.34796"
       id="text4217-1"
       transform="scale(-1,-1)"><tspan
         sodipodi:role="line"
         id="tspan4219-1"
         x="-457.02295"
         y="-817.34796">A</tspan></text>
    <path
       d="m 416.08088,827.8716 c -1.02222,0 -1.85165,-0.90768 -1.85165,-2.02635 0,-0.95302 1.68382,-2.55646 1.61842,-3.31794 -0.54064,-0.21761 -2.21101,1.79044 -3.07429,1.79044 -1.02222,0 -1.85164,-0.90767 -1.85164,-2.02634 0,-1.11867 0.82942,-2.02635 1.85164,-2.02635 0.88657,0 2.40593,2.00641 3.07429,1.82526 l -1.12286,-3.5805 2.69266,0.012 c 0,0 -1.17962,3.47136 -1.18109,3.55343 l 0.0211,0 0,-0.004 c 0.65454,0.17792 2.22582,-1.84458 3.10611,-1.84458 1.02221,0 1.85164,0.90768 1.85164,2.02635 0,1.11865 -0.82943,2.02633 -1.85164,2.02633 -0.85977,0 -2.41822,-1.97485 -3.10257,-1.77111 0.01,0.78027 1.67143,2.3853 1.67143,3.33728 0,1.11867 -0.82943,2.02634 -1.85165,2.02634 z"
       id="path2264-6-2-9"
       sodipodi:nodetypes="cscsssccccccssscsc"
       style="fill:#00c40b;fill-opacity:1;fill-rule:evenodd;stroke:none" />
    <text
       xml:space="preserve"
       style="font-size:13.1631546px;font-style:normal;font-variant:normal;font-weight:normal;font-stretch:normal;fill:#00c40b;fill-opacity:1;stroke:none;font-family:Arial;-inkscape-font-specification:Arial"
       x="-419.72513"
       y="-830.50391"
       id="text4217-0-0"
       transform="scale(-1,-1)"><tspan
         sodipodi:role="line"
         id="tspan4219-7-5"
         x="-419.72513"
         y="-830.50391">A</tspan></text>
  </g>
</svg>
